<?xml version="1.0" encoding="UTF-8"?>
<svg xmlns="http://www.w3.org/2000/svg" xmlns:xlink="http://www.w3.org/1999/xlink" viewBox="0 0 42 42" width="42px" height="42px">
<g id="surface101743195">
<path style=" stroke:none;fill-rule:nonzero;fill:rgb(13.333334%,13.333334%,13.333334%);fill-opacity:1;" d="M 38.574219 26.066406 C 38.414062 25.339844 37.753906 24.496094 36.425781 24.496094 C 36.15625 24.496094 35.859375 24.527344 35.523438 24.597656 C 34.902344 24.726562 34.375 24.789062 33.910156 24.808594 C 37.527344 18.648438 39.875 10.09375 37.550781 7.121094 C 34.484375 3.207031 30.363281 2.625 28.175781 2.625 L 27.972656 2.625 C 27.160156 2.636719 26.316406 2.738281 25.464844 2.921875 L 22.332031 3.597656 C 21.902344 3.546875 21.46875 3.507812 21.015625 3.5 L 20.84375 3.5 C 19.449219 3.5 18.175781 3.792969 17.042969 4.351562 L 15.949219 3.917969 C 14.445312 3.324219 12.179688 2.621094 9.941406 2.621094 C 9.8125 2.621094 9.6875 2.621094 9.5625 2.625 C 7.355469 2.707031 5.460938 3.542969 4.082031 5.046875 C 2.359375 6.925781 1.574219 9.671875 1.753906 13.210938 C 1.761719 13.394531 3.902344 31.5 9.976562 31.5 L 10.054688 31.5 C 10.839844 31.480469 11.59375 31.164062 12.296875 30.558594 C 12.832031 30.960938 13.527344 31.195312 14.171875 31.292969 C 14.597656 31.390625 15.367188 31.535156 16.289062 31.535156 C 17.410156 31.535156 18.425781 31.304688 19.296875 30.890625 C 19.296875 31.660156 19.292969 32.632812 19.285156 33.878906 L 19.285156 33.945312 L 19.289062 34.011719 C 19.371094 35.253906 19.585938 36.371094 19.910156 37.25 C 20.828125 39.75 22.417969 41.128906 24.382812 41.128906 C 24.464844 41.128906 24.546875 41.125 24.628906 41.121094 C 26.246094 41.023438 27.882812 40.113281 29.007812 38.695312 C 30.226562 37.160156 30.507812 35.539062 30.617188 34.296875 L 30.625 34.222656 L 30.625 30.574219 L 30.714844 30.585938 L 31.097656 30.617188 L 31.132812 30.621094 L 31.171875 30.625 C 31.277344 30.628906 31.390625 30.628906 31.503906 30.628906 C 32.820312 30.628906 34.445312 30.289062 35.542969 29.777344 C 36.589844 29.292969 38.988281 27.953125 38.574219 26.066406 Z M 38.574219 26.066406 "/>
<path style=" stroke:none;fill-rule:nonzero;fill:rgb(5.098039%,53.333336%,65.098041%);fill-opacity:1;" d="M 28.875 29.75 C 28.875 29.570312 28.886719 29.421875 28.890625 29.253906 C 28.882812 29.035156 28.875 28.875 28.875 28.875 C 28.875 28.875 28.886719 28.867188 28.902344 28.855469 C 29.035156 26.515625 29.679688 25.617188 30.367188 25.101562 C 30.273438 24.96875 30.160156 24.824219 30.058594 24.6875 C 29.765625 24.304688 29.402344 23.828125 29.015625 23.222656 L 28.941406 23.082031 C 28.882812 22.941406 28.742188 22.691406 28.5625 22.367188 C 27.527344 20.496094 25.371094 16.597656 26.847656 14.136719 C 27.492188 13.058594 28.703125 12.4375 30.453125 12.285156 C 29.738281 10.253906 27.058594 5.351562 20.988281 5.25 C 20.984375 5.25 20.984375 5.25 20.980469 5.25 C 15.695312 5.164062 13.957031 9.96875 13.394531 12.839844 C 14.171875 12.507812 15.0625 12.308594 15.875 12.308594 C 15.886719 12.308594 15.902344 12.308594 15.914062 12.308594 C 17.917969 12.324219 19.292969 13.390625 19.695312 15.242188 C 19.988281 16.601562 20.128906 17.789062 20.125 18.875 C 20.117188 21.253906 19.636719 22.507812 19.214844 23.609375 L 19.078125 23.96875 C 18.972656 24.261719 18.855469 24.53125 18.746094 24.789062 C 18.636719 25.046875 18.539062 25.28125 18.46875 25.488281 C 18.894531 25.585938 19.226562 25.722656 19.453125 25.820312 L 19.585938 25.878906 C 19.628906 25.898438 19.667969 25.917969 19.707031 25.941406 C 20.449219 26.390625 20.910156 27.085938 21.007812 27.894531 C 21.0625 28.328125 21.054688 31.300781 21.035156 33.890625 C 21.109375 35.015625 21.300781 35.960938 21.554688 36.644531 C 21.910156 37.621094 22.804688 39.480469 24.523438 39.375 C 25.722656 39.300781 26.875 38.570312 27.640625 37.609375 C 28.460938 36.574219 28.761719 35.429688 28.875 34.144531 Z M 28.875 29.75 "/>
<path style=" stroke:none;fill-rule:nonzero;fill:rgb(5.098039%,53.333336%,65.098041%);fill-opacity:1;" d="M 13.226562 25.300781 C 11.8125 23.828125 11.125 21.847656 11.382812 20.003906 C 11.632812 18.222656 11.492188 16.480469 11.417969 15.542969 C 11.390625 15.230469 11.375 14.996094 11.375 14.867188 C 11.375 14.863281 11.375 14.855469 11.378906 14.847656 C 11.378906 14.84375 11.375 14.84375 11.375 14.839844 C 11.480469 12.195312 12.5 8.027344 15.308594 5.546875 C 13.941406 5.007812 11.714844 4.300781 9.625 4.375 C 6.351562 4.492188 3.179688 6.757812 3.5 13.125 C 3.621094 15.515625 6.320312 29.839844 10.011719 29.75 C 10.539062 29.738281 11.085938 29.398438 11.648438 28.722656 C 12.539062 27.652344 13.402344 26.679688 14.015625 26.003906 C 13.742188 25.796875 13.476562 25.566406 13.226562 25.300781 Z M 32.394531 12.890625 C 32.410156 13.023438 32.398438 13.140625 32.375 13.246094 C 32.402344 14.050781 32.316406 14.832031 32.226562 15.589844 C 32.164062 16.144531 32.097656 16.71875 32.078125 17.296875 C 32.058594 17.863281 32.140625 18.417969 32.222656 19.007812 C 32.421875 20.390625 32.625 21.949219 31.554688 23.765625 C 31.75 24.023438 31.925781 24.265625 32.0625 24.5 C 36.097656 17.957031 37.722656 10.183594 36.171875 8.199219 C 33.824219 5.199219 30.574219 4.332031 28 4.375 C 27.191406 4.386719 26.460938 4.496094 25.835938 4.632812 C 30.277344 6.785156 32.253906 11.398438 32.394531 12.890625 Z M 35.875 26.3125 C 33.542969 26.792969 32.421875 26.535156 31.878906 26.203125 C 31.789062 26.265625 31.703125 26.316406 31.621094 26.367188 C 31.296875 26.566406 30.78125 26.878906 30.652344 28.800781 C 30.726562 28.816406 30.789062 28.824219 30.867188 28.839844 L 31.25 28.875 C 32.40625 28.925781 33.917969 28.605469 34.804688 28.191406 C 36.714844 27.304688 37.757812 25.921875 35.875 26.3125 Z M 19.269531 28.105469 C 19.238281 27.84375 19.097656 27.632812 18.839844 27.464844 L 18.746094 27.421875 C 18.429688 27.285156 18.070312 27.125 17.5 27.125 L 17.496094 27.125 C 17.386719 27.132812 17.273438 27.140625 17.164062 27.140625 C 17.117188 27.140625 17.074219 27.136719 17.027344 27.132812 C 16.613281 27.453125 16.023438 27.699219 14.5625 28 C 11.957031 28.664062 13.496094 29.449219 14.496094 29.570312 C 15.464844 29.8125 17.765625 30.105469 19.292969 28.863281 C 19.289062 28.46875 19.28125 28.199219 19.269531 28.105469 Z M 19.269531 28.105469 "/>
<path style=" stroke:none;fill-rule:nonzero;fill:rgb(5.098039%,53.333336%,65.098041%);fill-opacity:1;" d="M 18.097656 16.1875 C 17.839844 16.453125 17.4375 16.683594 16.992188 16.613281 C 16.265625 16.496094 15.710938 15.621094 15.75 15.292969 C 15.789062 14.964844 16.410156 14.792969 17.132812 14.910156 C 17.382812 14.953125 17.613281 15.023438 17.804688 15.109375 C 17.523438 14.507812 17.019531 14.160156 16.246094 14.078125 C 14.875 13.925781 13.421875 14.640625 13.128906 15.035156 C 13.136719 15.132812 13.148438 15.257812 13.160156 15.402344 C 13.242188 16.40625 13.390625 18.273438 13.117188 20.246094 C 12.933594 21.546875 13.460938 23.019531 14.488281 24.09375 C 15.148438 24.785156 15.921875 25.222656 16.683594 25.351562 C 16.78125 24.933594 16.957031 24.523438 17.132812 24.105469 C 17.234375 23.871094 17.339844 23.625 17.4375 23.359375 L 17.578125 22.984375 C 17.964844 21.972656 18.367188 20.929688 18.375 18.871094 C 18.378906 18.078125 18.28125 17.171875 18.097656 16.1875 Z M 30.492188 19.257812 C 30.398438 18.617188 30.304688 17.957031 30.328125 17.242188 C 30.347656 16.589844 30.421875 15.980469 30.492188 15.386719 C 30.542969 14.921875 30.585938 14.472656 30.609375 14.03125 C 29.484375 14.125 28.734375 14.449219 28.378906 15 C 28.527344 14.949219 28.691406 14.910156 28.875 14.886719 C 29.65625 14.785156 30.226562 15.011719 30.292969 15.445312 C 30.339844 15.761719 30.070312 16.0625 29.953125 16.175781 C 29.710938 16.410156 29.40625 16.5625 29.09375 16.601562 C 29.039062 16.609375 28.980469 16.613281 28.925781 16.613281 C 28.617188 16.613281 28.320312 16.507812 28.09375 16.351562 C 28.195312 18.078125 29.464844 20.386719 30.09375 21.519531 C 30.226562 21.761719 30.332031 21.957031 30.414062 22.121094 C 30.757812 21.144531 30.632812 20.25 30.492188 19.257812 Z M 30.492188 19.257812 "/>
</g>
</svg>
